<svg width="774" height="96" viewBox="0 0 774 96" fill="none" xmlns="http://www.w3.org/2000/svg">
<path stroke-linecap="round" d="M 673.4 15.5 C 673.4 9.4 660.3 18 658.4 19.3 C 645.4 27.8 645.6 46.1 662.4 49.1 C 672.5 50.8 682.8 49.2 691.4 43.5 C 697.1 39.6 701.1 32.2 707.3 29.3 C 710.8 27.7 716 30.9 718.9 32.3 C 725.8 35.4 732.8 38.3 739.3 42.3 C 743 44.7 748.1 49.5 752.9 49.1 C 758.5 48.5 762.5 43.1 764.3 38.4 C 766 33.8 768.2 26.7 764.7 22.3 C 760.6 17.3 751.9 16.4 746.1 15.3 C 732.9 12.9 719.6 10.9 706.3 9.7 C 696 8.8 685 7.4 674.7 8.2 C 661.4 9.3 649.2 16.5 643 28.1" stroke="black" stroke-width="3"/>
<path d="M 22 61.5 C 18.9 61.5 24.7 61.1 24.4 64.2 C 23.8 71.1 29.2 75.8 35.7 76.9 C 46.3 78.8 57 74.4 64.8 67.2 C 69.8 62.6 72.5 60.1 79.3 62.8 C 96.2 69.4 113.8 69.1 131.5 66.7 C 138.9 65.7 144.7 63.6 148 56.4 C 151 49.8 147.8 43.3 143.1 38.3 C 135.7 30.5 124.3 24.8 113.6 23.7 C 102.6 22.6 89.9 22.6 79.2 25.7 C 72.2 27.8 65.4 32.3 61.2 38.3 C 58.5 42.4 58.3 47.3 55.9 51.3 C 54 54.4 47.5 53.7 44.5 53.7 C 38.8 53.7 33.5 52.2 27.8 51.7 C 22.4 51.1 24.5 57.9 22 60.4" stroke="black" stroke-width="3" stroke-linecap="round"/>
<path clip-rule="evenodd" fill="black" fill-rule="evenodd" d="M 637.7 96 C 639.5 89 639.3 81.6 636.5 74.8 C 635.1 71.5 633.1 69.4 630.5 68.6 C 627.9 67.9 625.1 68.4 622.1 69.4 C 619.7 70.3 617.4 71.1 615.2 72 C 610.8 73.6 606.5 75.2 602.1 76.4 C 585.3 80.9 566.1 81.3 549 78.6 C 543.5 77.7 538.5 75.7 533.2 73.7 L 533.2 73.7 C 531.3 72.9 529.4 72.2 527.5 71.5 C 527.2 71.4 526.9 71.3 526.6 71.2 C 519.6 68.7 512.5 66.1 504.6 66.6 C 495.7 67.1 487.7 70.9 480.3 75.1 C 480.1 75.1 479.8 75.4 479.5 75.6 C 479.1 75.8 478.7 76.2 478.1 76.6 C 477.5 77 476.8 77.6 476 78.2 C 473.7 78.6 472 80 471.1 81.9 C 471 82.1 470.9 82.3 470.8 82.5 C 470.4 82.9 470.1 83.3 469.9 83.6 C 469.8 83.8 469.5 84.2 469.5 84.7 C 469.5 84.8 469.5 85 469.6 85.3 C 469.6 85.5 469.5 85.7 469.5 86.1 C 469.5 86.8 469.4 87.9 469.4 88.9 C 469.4 89.9 469.4 91 469.5 91.8 C 469.6 92.2 469.7 92.7 470 93.2 C 470 93.3 470.1 93.4 470.3 93.6 C 470.5 94.4 470.7 95.2 470.9 96 H 474 C 473.7 94.8 473.3 93.6 473.1 92.3 C 473.1 92.3 473.1 92.2 473.1 92.2 C 472.9 91 472.8 89.9 472.7 88.7 C 472.7 87 472.9 85.5 473.3 84.2 C 474.1 83.6 475.1 82.7 476.3 81.8 C 476.7 81.5 477.1 81.1 477.5 80.8 C 477.5 80.8 477.6 80.8 477.6 80.8 C 478.4 80.1 479.2 79.5 479.9 79 C 480.4 78.6 480.9 78.3 481.2 78 C 481.5 77.8 481.7 77.7 481.7 77.7 C 481.8 77.7 481.8 77.7 481.8 77.7 C 489.1 73.6 496.6 70.1 504.8 69.6 C 512.1 69.1 518.7 71.5 525.8 74.1 L 526.5 74.3 C 528.3 75 530 75.7 531.9 76.4 L 531.9 76.4 C 537.2 78.5 542.7 80.6 548.5 81.6 C 566 84.3 585.6 83.9 602.9 79.3 C 607.5 78.1 612 76.4 616.4 74.7 L 616.4 74.7 C 618.6 73.9 620.9 73 623.1 72.3 C 625.9 71.3 628 71 629.6 71.5 C 631.1 71.9 632.5 73.1 633.7 76 C 636.4 82.3 636.5 89.3 634.6 96 H 637.7 Z"/>
<path stroke-width="3" stroke="black" stroke-linecap="round" d="M 354.3 38.1 C 353.9 36.6 351.5 36.1 350.2 36.2 C 343.6 36.9 337.8 40 334.4 45.8 C 330.5 52.2 329.3 59.7 336.1 64.4 C 342.9 69.2 353.4 70.2 361.3 68.4 C 367.9 67 374.6 63.5 376.7 56.7 C 378.5 50.7 375.1 44.7 370.3 41.3 C 361.3 35.1 340.9 30.6 333.3 40.8"/>
<path d="M 305.5 27.9 C 308.4 29.9 311.2 31.8 314.3 33.4" stroke="black" stroke-width="3" stroke-linecap="round"/>
<path d="M 362.4 30 C 366.9 27.1 371.8 24.6 375.9 21.2" stroke="black" stroke-width="3" stroke-linecap="round"/>
<path d="M 392.2 52.3 C 395.8 52.3 398.4 52.9 401.7 54.4" stroke="black" stroke-width="3" stroke-linecap="round"/>
<path d="M 360.4 76 C 358.7 77.7 357.5 79.5 356.3 81.4" stroke="black" stroke-width="3" stroke-linecap="round"/>
<path d="M 315.7 68.6 C 312.3 68.8 309.7 70.3 306.9 72" stroke="black" stroke-width="3" stroke-linecap="round"/>
</svg>
