<svg xmlns="http://www.w3.org/2000/svg" xmlns:se="http://svg-edit.googlecode.com" xmlns:xlink="http://www.w3.org/1999/xlink" xmlns:dc="http://purl.org/dc/elements/1.1/" xmlns:cc="http://creativecommons.org/ns#" xmlns:rdf="http://www.w3.org/1999/02/22-rdf-syntax-ns#" xmlns:inkscape="http://www.inkscape.org/namespaces/inkscape" width="263" height="182" style="">                                    <title>moo</title>                                                                  <g class="currentLayer" style=""><title>Layer 1</title><polyline fill="none" stroke="#222222" stroke-width="15" stroke-linejoin="round" stroke-dashoffset="" fill-rule="nonzero" marker-start="" marker-mid="" marker-end="" id="svg_1" points="165.674165725708,40.95505332946777 164.55056953430176,40.39325523376465 161.74157905578613,39.83145713806152 156.685396194458,39.269662857055664 146.57303047180176,39.269662857055664 133.08990669250488,39.269662857055664 111.74157905578613,43.20224571228027 97.13482856750488,48.2584285736084 82.52810859680176,56.123586654663086 65.67416572570801,72.97752952575684 58.37078666687012,85.33707237243652 53.87640571594238,98.2584285736084 53.31460762023926,112.30336570739746 55.00000190734863,125.78652000427246 61.17978096008301,139.83145713806152 75.78653144836426,158.37079429626465 91.51684761047363,167.92136192321777 110.61798286437988,174.10111045837402 147.13482856750488,174.66290855407715 170.168550491333,169.0449275970459 188.70788764953613,160.61798667907715 202.75280952453613,149.94382286071777 211.179780960083,138.70786094665527 215.674165725708,126.91011619567871 216.79776191711426,106.12358665466309 214.55056953430176,90.39325523376465 210.05618476867676,75.22472190856934 200.50561714172363,57.80898094177246 193.202241897583,50.5056209564209 184.77530097961426,46.0112361907959 174.662935256958,43.20224571228027 162.30337715148926,40.95505332946777 148.25842475891113,39.269662857055664 127.47192573547363,38.14606285095215 116.79776191711426,38.70786476135254 110.61798286437988,42.64044761657715 106.68539619445801,47.13483238220215 " style="color: rgb(0, 0, 0);" class=""/><polyline fill="currentColor" stroke="#222222" stroke-width="15" stroke-linejoin="round" stroke-dashoffset="" fill-rule="nonzero" marker-start="" marker-mid="" marker-end="" id="svg_2" points="170.73034858703613,49.94382667541504 170.168550491333,49.94382667541504 169.04495429992676,51.06741905212402 169.04495429992676,52.7528133392334 169.04495429992676,54.43819236755371 169.04495429992676,57.2471866607666 169.04495429992676,60.05617713928223 170.73034858703613,64.55055809020996 172.97754096984863,67.35954856872559 175.78653144836426,70.16853904724121 180.28091621398926,71.29213523864746 184.77530097961426,71.85393333435059 191.51687812805176,71.85393333435059 194.32583808898926,71.85393333435059 196.57303047180176,71.85393333435059 197.13482856750488,71.29213523864746 196.57303047180176,70.73033714294434 195.4494342803955,70.16853904724121 193.202241897583,68.48314476013184 188.70788764953613,65.11235618591309 184.77530097961426,62.30336570739746 180.28091621398926,59.494375228881836 176.34832954406738,57.2471866607666 172.97754096984863,55.56178855895996 169.04495429992676,53.876394271850586 167.35956001281738,53.31461524963379 166.23596382141113,53.31461524963379 165.674165725708,53.31461524963379 165.11236763000488,54.43819236755371 166.23596382141113,57.80898094177246 168.48315620422363,60.617971420288086 171.85394477844238,63.42696189880371 176.34832954406738,66.23595237731934 183.651704788208,69.04494285583496 188.146089553833,69.60674095153809 190.95508003234863,70.16853904724121 192.64044380187988,70.16853904724121 193.202241897583,69.04494285583496 192.64044380187988,67.35954856872559 190.3932819366455,65.11235618591309 186.46069526672363,62.865163803100586 181.4045124053955,59.494375228881836 173.53933906555176,56.123586654663086 170.168550491333,54.43819236755371 167.9213581085205,53.876394271850586 167.35956001281738,53.876394271850586 167.9213581085205,54.43819236755371 170.168550491333,56.68538475036621 174.10113716125488,58.93257713317871 178.59552192687988,61.741567611694336 183.651704788208,64.55055809020996 188.70788764953613,67.35954856872559 190.95508003234863,68.48314476013184 191.51687812805176,69.04494285583496 191.51687812805176,69.60674095153809 188.146089553833,69.60674095153809 184.21350288391113,69.60674095153809 182.52810859680176,69.60674095153809 " style="color: rgb(0, 0, 0);" class=""/><polyline fill="none" stroke="#222222" stroke-width="15" stroke-linejoin="round" stroke-dashoffset="" fill-rule="nonzero" marker-start="" marker-mid="" marker-end="" id="svg_3" points="61.17978096008301,142.07864952087402 61.74157905578613,142.07864952087402 62.86517524719238,141.5168514251709 65.67416572570801,140.95505332946777 71.85394477844238,140.39325523376465 75.78653144836426,140.39325523376465 80.28091621398926,141.5168514251709 83.65170478820801,143.20224571228027 86.46069526672363,145.44943809509277 89.26968574523926,148.2584285736084 93.20224189758301,152.7528133392334 95.44943428039551,155.56180381774902 97.69662666320801,158.93259239196777 100.50561714172363,162.30338096618652 102.19101142883301,164.55057334899902 103.31460762023926,166.2359676361084 103.87640571594238,167.92136192321777 104.43820381164551,168.4831600189209 104.43820381164551,169.0449275970459 103.87640571594238,169.0449275970459 103.31460762023926,168.4831600189209 101.62921333312988,167.92136192321777 99.94381904602051,166.2359676361084 98.25842475891113,164.55057334899902 94.88763618469238,161.7415828704834 92.64044380187988,160.05618858337402 90.39325141906738,158.93259239196777 88.14608955383301,157.2471981048584 85.89889717102051,156.12360191345215 81.40451240539551,153.31461143493652 79.15732002258301,151.62921714782715 77.47192573547363,150.5056209564209 75.78653144836426,149.38202476501465 74.10113716125488,148.82022666931152 72.97754096984863,147.69663047790527 72.41574287414551,147.13483238220215 72.97754096984863,147.13483238220215 74.10113716125488,148.2584285736084 75.22473335266113,149.38202476501465 76.91012763977051,149.94382286071777 78.03372383117676,150.5056209564209 79.15732002258301,151.62921714782715 " style="color: rgb(0, 0, 0);" class=""/><polyline fill="currentColor" stroke="#222222" stroke-width="10" stroke-linejoin="round" stroke-dashoffset="" fill-rule="nonzero" marker-start="" marker-mid="" marker-end="" id="svg_4" points="117.92135810852051,136.46066856384277 118.48315620422363,136.46066856384277 119.04495429992676,136.46066856384277 119.60675239562988,136.46066856384277 119.60675239562988,137.0224666595459 120.16855049133301,137.58426475524902 120.16855049133301,138.14606285095215 120.16855049133301,139.2696590423584 119.60675239562988,139.2696590423584 119.04495429992676,139.2696590423584 118.48315620422363,139.2696590423584 117.35956001281738,138.70786094665527 117.35956001281738,138.14606285095215 116.79776191711426,137.0224666595459 116.79776191711426,135.89887046813965 116.79776191711426,134.7752742767334 116.23596382141113,133.65167808532715 116.23596382141113,133.08987998962402 116.79776191711426,133.08987998962402 117.35956001281738,133.08987998962402 118.48315620422363,133.65167808532715 119.60675239562988,134.7752742767334 120.16855049133301,135.89887046813965 120.73034858703613,136.46066856384277 120.73034858703613,137.0224666595459 120.73034858703613,137.58426475524902 120.73034858703613,138.70786094665527 120.73034858703613,139.2696590423584 120.16855049133301,139.2696590423584 " style="color: rgb(0, 0, 0);" class=""/><polyline fill="currentColor" stroke="#222222" stroke-width="10" stroke-linejoin="round" stroke-dashoffset="" fill-rule="nonzero" marker-start="" marker-mid="" marker-end="" id="svg_5" points="181.96631050109863,125.78652000427246 182.52810859680176,125.78652000427246 183.08990669250488,125.78652000427246 183.651704788208,125.78652000427246 183.651704788208,126.34831809997559 184.21350288391113,127.47191429138184 184.21350288391113,128.03371238708496 184.21350288391113,128.5955104827881 183.651704788208,128.5955104827881 183.08990669250488,128.5955104827881 182.52810859680176,128.5955104827881 181.96631050109863,128.5955104827881 181.96631050109863,128.03371238708496 181.4045124053955,128.03371238708496 181.4045124053955,127.47191429138184 180.84271430969238,126.91011619567871 180.84271430969238,126.34831809997559 180.84271430969238,125.78652000427246 180.84271430969238,125.22472190856934 181.4045124053955,124.66292381286621 181.96631050109863,124.10112571716309 182.52810859680176,124.10112571716309 183.08990669250488,124.10112571716309 183.651704788208,123.53932762145996 184.77530097961426,123.53932762145996 184.77530097961426,124.10112571716309 185.33709907531738,125.78652000427246 185.33709907531738,126.34831809997559 185.33709907531738,126.91011619567871 185.33709907531738,127.47191429138184 184.77530097961426,128.03371238708496 " style="color: rgb(0, 0, 0);" class=""/><polyline fill="currentColor" stroke="#222222" stroke-width="10" stroke-linejoin="round" stroke-dashoffset="" fill-rule="nonzero" marker-start="" marker-mid="" marker-end="" id="svg_6" points="37.022478103637695,54.43819236755371 37.022478103637695,54.999990463256836 37.022478103637695,55.56178855895996 37.584272384643555,58.37078285217285 41.516862869262695,67.35954856872559 46.01123237609863,78.59551048278809 49.38202095031738,89.83145713806152 51.06741142272949,98.82022666931152 51.62921333312988,101.06741905212402 52.19101142883301,102.7528133392334 52.75280952453613,101.06741905212402 " style="color: rgb(0, 0, 0);" class=""/><polyline fill="currentColor" stroke="#222222" stroke-width="10" stroke-linejoin="round" stroke-dashoffset="" fill-rule="nonzero" marker-start="" marker-mid="" marker-end="" id="svg_7" points="38.14607048034668,55.56178855895996 39.26966667175293,56.68538475036621 41.516862869262695,58.37078285217285 47.69662666320801,61.17976951599121 52.75280952453613,62.865163803100586 59.49438285827637,62.865163803100586 67.35956001281738,62.30336570739746 74.10113716125488,61.17976951599121 " style="color: rgb(0, 0, 0);" class=""/><polyline fill="none" stroke="#222222" stroke-width="10" stroke-linejoin="round" stroke-dashoffset="" fill-rule="nonzero" marker-start="" marker-mid="" marker-end="" id="svg_8" points="166.23596382141113,36.46066856384277 166.79776191711426,37.0224666595459 166.79776191711426,37.58426475524902 168.48315620422363,39.269662857055664 170.168550491333,39.83145713806152 175.78653144836426,39.269662857055664 180.84271430969238,35.898874282836914 187.02249336242676,29.719091415405273 193.76403999328613,20.73033905029297 198.82022285461426,12.303367614746094 200.50561714172363,9.494377136230469 202.191011428833,7.2471923828125 203.31460762023926,6.12359619140625 205.00000190734863,5 205.56180000305176,5 206.685396194458,5 207.24719429016113,5 208.37079048156738,6.685394287109375 208.9325885772705,11.179771423339844 209.49438667297363,15.674156188964844 210.61798286437988,22.415733337402344 211.74157905578613,33.65167808532715 212.30337715148926,45.44944190979004 212.30337715148926,59.494375228881836 212.30337715148926,63.42696189880371 212.86517524719238,65.67415428161621 215.11236763000488,65.67415428161621 216.23596382141113,64.55055809020996 " style="color: rgb(0, 0, 0);" class=""/><polyline fill="none" stroke="#222222" stroke-width="10" stroke-linejoin="round" stroke-dashoffset="" fill-rule="nonzero" marker-start="" marker-mid="" marker-end="" id="svg_9" points="51.06741142272949,88.70786094665527 51.06741142272949,88.14606285095215 47.69662666320801,87.0224666595459 44.32583427429199,86.46066856384277 39.26966667175293,85.89887046813965 31.40449333190918,86.46066856384277 20.7303466796875,89.83145713806152 14.550567626953125,94.88763999938965 8.37078857421875,103.31461143493652 5,111.74156761169434 5,117.35954856872559 8.37078857421875,122.41573143005371 17.35955810546875,124.66292381286621 30.28089714050293,123.53932762145996 39.83146858215332,120.16853904724121 47.69662666320801,116.23595237731934 51.62921333312988,113.42696189880371 " style="color: rgb(0, 0, 0);" class=""/><polyline fill="none" stroke="#222222" stroke-width="10" stroke-linejoin="round" stroke-dashoffset="" fill-rule="nonzero" marker-start="" marker-mid="" marker-end="" id="svg_10" points="215.11236763000488,66.79775047302246 217.35956001281738,65.11235618591309 220.73034858703613,62.30336570739746 225.78653144836426,58.37078285217285 234.77530097961426,54.43819236755371 241.51687812805176,53.31461524963379 247.13482856750488,53.31461524963379 251.62921333312988,55.56178855895996 256.685396194458,61.741567611694336 258.3707904815674,66.79775047302246 258.3707904815674,72.41573143005371 257.24719429016113,78.59551048278809 253.87640571594238,84.21347618103027 246.01123237609863,88.70786094665527 239.83148384094238,89.83145713806152 234.21350288391113,90.39325523376465 227.47192573547363,90.39325523376465 225.22473335266113,89.83145713806152 222.97754096984863,88.70786094665527 " style="color: rgb(0, 0, 0);" class=""/></g></svg>