<svg width="782" height="105" viewBox="0 0 782 105" fill="none" xmlns="http://www.w3.org/2000/svg">
<g filter="url(#filter0_d_19_77)">
<rect x="5" y="1" width="772" height="94" rx="9" fill="white" stroke="black" stroke-width="2"/>
<path fill-rule="evenodd" clip-rule="evenodd" d="M5 27.281C9.43334 29.2994 13.8879 31.434 18.0482 34.0342C18.9695 34.61 19.9571 35.3231 20.9438 36.0357L21.173 36.2011C22.2548 36.9817 23.3529 37.7664 24.4731 38.4607C26.7623 39.8796 28.8724 40.7423 30.7652 40.5591C33.0775 40.3354 35.1495 39.0934 36.9027 37.2551C38.6571 35.4155 40.0109 33.0579 40.8606 30.8241C41.7188 28.5677 42.6379 25.7876 42.9378 23.086C43.2397 20.3668 42.888 17.9786 41.5041 16.2539C39.7678 14.0903 36.9437 12.7184 33.633 11.7635C31.12 11.0388 28.5068 10.5986 26.0743 10.1888L26.0742 10.1888C25.2991 10.0583 24.5424 9.93079 23.8131 9.79819C17.8651 8.71673 11.8928 7.71695 5.90569 6.83561C6.37467 5.81312 7.01101 4.88337 7.77964 4.08142C13.3242 4.91517 18.8503 5.84667 24.3498 6.84658C25.0047 6.96566 25.7109 7.08448 26.4531 7.20935L26.4532 7.20936C28.9136 7.6233 31.7695 8.1038 34.4643 8.88104C37.975 9.89358 41.525 11.4868 43.8438 14.3763C45.9482 16.9986 46.2605 20.3451 45.9195 23.417C45.5765 26.5065 44.5458 29.5741 43.6646 31.8906C42.7017 34.4222 41.1547 37.1434 39.0737 39.3255C36.9914 41.509 34.2932 43.2317 31.0541 43.5452C28.1231 43.8288 25.2854 42.4938 22.8926 41.0106C21.6717 40.2539 20.4951 39.4114 19.4176 38.6339L19.2126 38.4859L19.2123 38.4858C18.1986 37.754 17.2903 37.0982 16.4582 36.5782C12.8088 34.2973 8.94871 32.3992 5 30.5812V27.281Z" fill="black"/>
<path fill-rule="evenodd" clip-rule="evenodd" d="M766.348 96.4997C768.14 89.5208 767.95 82.1066 765.086 75.2973C763.684 71.9649 761.748 69.8899 759.1 69.105C756.56 68.3525 753.703 68.8998 750.708 69.9367C748.352 70.7522 746.058 71.6122 743.785 72.4642C739.438 74.0934 735.17 75.6935 730.694 76.8985C713.946 81.4076 694.736 81.766 677.637 79.0862C672.157 78.2275 667.086 76.2405 661.84 74.1849L661.84 74.1849C659.962 73.4493 658.062 72.7049 656.113 72.0002C655.813 71.8915 655.512 71.7824 655.21 71.6732C648.26 69.154 641.135 66.5717 633.217 67.0599C624.325 67.608 616.356 71.448 608.931 75.5534C608.76 75.6478 608.442 75.8681 608.124 76.0931C607.764 76.3472 607.293 76.6871 606.754 77.0833C606.126 77.5453 605.401 78.0872 604.648 78.6632C602.292 79.0888 600.663 80.5262 599.675 82.4395C599.573 82.6367 599.478 82.8387 599.389 83.0451C599.04 83.3939 598.709 83.7615 598.487 84.1064C598.382 84.2694 598.14 84.6645 598.123 85.1721C598.117 85.3447 598.137 85.5468 598.205 85.7552C598.187 85.9719 598.165 86.2479 598.143 86.565C598.087 87.3483 598.026 88.3955 598.007 89.4281C597.987 90.4355 598.005 91.5219 598.134 92.3414C598.191 92.7078 598.3 93.2425 598.58 93.6822C598.654 93.7983 598.764 93.9449 598.917 94.0844C599.085 94.9047 599.287 95.7146 599.519 96.4997H602.664C602.274 95.3386 601.95 94.0771 601.723 92.7878C601.718 92.7571 601.713 92.7264 601.707 92.6958C601.506 91.5362 601.384 90.3556 601.363 89.2067C601.331 87.503 601.525 85.9759 601.946 84.7485C602.698 84.0513 603.746 83.181 604.875 82.286C605.295 81.9536 605.722 81.6209 606.144 81.2965C606.161 81.2839 606.178 81.2709 606.194 81.2576C607.028 80.6167 607.839 80.0093 608.531 79.5003C609.059 79.1122 609.515 78.7838 609.855 78.5434C610.152 78.3332 610.313 78.2259 610.364 78.1913C610.379 78.1816 610.385 78.1776 610.383 78.1788C617.765 74.0968 625.228 70.558 633.401 70.0542C640.684 69.6052 647.275 71.9911 654.38 74.5632L655.093 74.8215C656.874 75.4653 658.671 76.1696 660.488 76.8822L660.489 76.8822C665.823 78.9736 671.34 81.136 677.172 82.05C694.608 84.7826 714.25 84.4325 731.474 79.7953C736.079 78.5555 740.593 76.8648 745.029 75.2037L745.029 75.2036C747.268 74.3648 749.488 73.5335 751.689 72.7716C754.549 71.7818 756.647 71.5071 758.247 71.9814C759.739 72.4234 761.127 73.6242 762.32 76.4605C764.994 82.8175 765.106 89.8496 763.243 96.4997H766.348Z" fill="black"/>
<path d="M326.521 19.0654C328.715 18.8107 330.888 19.3819 333.076 19.3819C330.624 19.3819 329.678 20.4578 328.601 22.2527C325.692 27.1003 322.491 32.473 321.503 38.1214C320.663 42.9184 321.642 47.2122 326.159 49.4917C335.3 54.1048 343.617 58.0526 353.918 58.9406C356.944 59.2015 362.889 59.7521 358.665 63.326C355 66.4271 349.159 67.2582 344.673 68.3895C334.889 70.8567 323.814 72.8251 313.862 70.2883C306.952 68.5269 302.277 61.5222 302.017 54.6005C301.654 44.937 307.1 35.6464 312.868 28.2883C315.994 24.2996 321.208 19.6821 326.521 19.0654Z" stroke="black" stroke-width="3" stroke-linecap="round"/>
<path d="M174.39 42.4623C174.39 39.9503 175.046 37.3451 175.266 34.8278C175.424 33.0087 175.734 31.2087 176.126 29.4264C176.262 28.8036 176.265 28.0084 176.88 28.838C179.534 32.4215 181.047 36.7267 184.499 39.6861C185.322 40.3915 183.419 39.3718 183.383 39.3542C180.638 38.0187 177.847 36.7554 175.054 35.5219C174.552 35.3 169.916 34.0037 171.524 33.7113C175.608 32.9688 179.722 33.295 183.805 33.9075C187.36 34.4407 183.59 35.5625 182.131 35.9896C179.517 36.7546 176.849 37.4857 174.3 38.4489C172.059 39.2957 171.161 40.2068 170.045 42.1907" stroke="black" stroke-width="3" stroke-linecap="round"/>
<path d="M531.501 46.8387C531.693 42.8106 533.091 38.9723 533.091 34.8947C533.091 33.9085 532.606 31.2836 533.268 30.4129C533.877 29.6117 535.751 32.7759 535.895 32.996C537.312 35.1638 538.564 37.4368 539.847 39.6855C540.364 40.5917 541.79 42.2811 541.79 43.4167C541.79 44.0154 537.666 41.9544 537.551 41.8933C534.204 40.1274 531.113 37.9094 527.837 36.0206C525.881 34.8935 520.95 33.9031 525.673 34.2102C531.556 34.5929 537.744 34.0149 543.556 35.0934C548.887 36.0826 538.604 39.6219 537.727 39.9946C533.883 41.6303 529.512 42.8667 526.335 45.6465" stroke="black" stroke-width="3" stroke-linecap="round"/>
</g>
<defs>
<filter id="filter0_d_19_77" x="0" y="0" width="782" height="104.5" filterUnits="userSpaceOnUse" color-interpolation-filters="sRGB">
<feFlood flood-opacity="0" result="BackgroundImageFix"/>
<feColorMatrix in="SourceAlpha" type="matrix" values="0 0 0 0 0 0 0 0 0 0 0 0 0 0 0 0 0 0 127 0" result="hardAlpha"/>
<feOffset dy="4"/>
<feGaussianBlur stdDeviation="2"/>
<feComposite in2="hardAlpha" operator="out"/>
<feColorMatrix type="matrix" values="0 0 0 0 0 0 0 0 0 0 0 0 0 0 0 0 0 0 0.25 0"/>
<feBlend mode="normal" in2="BackgroundImageFix" result="effect1_dropShadow_19_77"/>
<feBlend mode="normal" in="SourceGraphic" in2="effect1_dropShadow_19_77" result="shape"/>
</filter>
</defs>
</svg>
